<?xml version="1.0" standalone="no"?><!DOCTYPE svg PUBLIC "-//W3C//DTD SVG 1.1//EN" "http://www.w3.org/Graphics/SVG/1.1/DTD/svg11.dtd"><svg t="1574478513264" class="icon" viewBox="0 0 1024 1024" version="1.1" xmlns="http://www.w3.org/2000/svg" p-id="3496" xmlns:xlink="http://www.w3.org/1999/xlink" width="200" height="200"><defs><style type="text/css"></style></defs><path d="M522.88 321.28c-146.56 0-264.96 183.68-264.96 183.68s119.04 165.76 264.96 165.76 264.96-165.76 264.96-165.76-118.4-183.68-264.96-183.68z" fill="#E8E6FF" p-id="3497"></path><path d="M522.88 682.88c-62.72 0-130.56-29.44-195.84-85.76-48.64-42.24-78.72-83.2-80-85.12-3.2-4.48-3.2-10.24-0.64-14.72 1.28-1.92 31.36-47.36 79.36-94.08 65.28-62.08 133.12-95.36 196.48-95.36s131.2 32.64 196.48 95.36c48.64 46.08 78.08 92.16 79.36 94.08 2.56 4.48 2.56 10.24-0.64 14.72-1.28 1.92-31.36 42.88-80 85.12-63.36 56.32-131.2 85.76-194.56 85.76zM273.92 504.32c24.32 30.72 128 152.96 249.6 152.96s225.28-122.24 249.6-152.96c-23.68-33.28-128-170.24-249.6-170.24-122.24 0-225.92 136.32-249.6 170.24z" fill="#708DB7" p-id="3498"></path><path d="M592 562.56c-17.92 17.92-41.6 27.52-67.2 27.52s-49.28-9.6-67.2-27.52-27.52-41.6-27.52-67.2 9.6-49.28 27.52-67.2S499.2 400.64 524.8 400.64s49.28 9.6 67.2 27.52 27.52 41.6 27.52 67.2-9.6 49.28-27.52 67.2z" fill="#FFF27D" p-id="3499"></path><path d="M524.8 603.52c-28.8 0-55.68-11.52-76.16-31.36-20.48-20.48-31.36-47.36-31.36-76.16s11.52-55.68 31.36-76.16c20.48-20.48 47.36-31.36 76.16-31.36s55.68 11.52 76.16 31.36c20.48 20.48 31.36 47.36 31.36 76.16s-11.52 55.68-31.36 76.16c-20.48 19.84-47.36 31.36-76.16 31.36z m0-190.08c-21.76 0-42.24 8.32-58.24 24.32-15.36 15.36-24.32 35.84-24.32 58.24 0 21.76 8.32 42.24 24.32 58.24 15.36 15.36 35.84 24.32 58.24 24.32s42.24-8.32 58.24-24.32c15.36-15.36 24.32-35.84 24.32-58.24 0-21.76-8.32-42.24-24.32-58.24-15.36-15.36-36.48-24.32-58.24-24.32zM518.4 249.6h25.6v64h-25.6z" fill="#708DB7" p-id="3500"></path><path d="M531.84 261.12c-19.84 0-36.48-16-36.48-36.48s16-36.48 36.48-36.48 36.48 16 36.48 36.48-16.64 36.48-36.48 36.48z m0-47.36c-5.76 0-10.88 5.12-10.88 10.88s5.12 10.88 10.88 10.88 10.88-5.12 10.88-10.88-5.12-10.88-10.88-10.88zM396.8 192h25.6v172.8h-25.6z" fill="#708DB7" p-id="3501"></path><path d="M410.24 216.32c-26.88 0-49.28-21.76-49.28-49.28s21.76-49.28 49.28-49.28 49.28 21.76 49.28 49.28-22.4 49.28-49.28 49.28z m0-72.96c-12.8 0-23.68 10.88-23.68 23.68s10.88 23.68 23.68 23.68 23.68-10.88 23.68-23.68-10.88-23.68-23.68-23.68zM646.4 352h-25.6V172.8h185.6v25.6h-160z" fill="#708DB7" p-id="3502"></path><path d="M634.24 192.64m-23.68 0a23.68 23.68 0 1 0 47.36 0 23.68 23.68 0 1 0-47.36 0Z" fill="#FFF27D" p-id="3503"></path><path d="M634.24 229.12c-19.84 0-36.48-16-36.48-36.48s16-36.48 36.48-36.48 36.48 16 36.48 36.48-16.64 36.48-36.48 36.48z m0-47.36c-5.76 0-10.88 5.12-10.88 10.88s5.12 10.88 10.88 10.88 10.88-5.12 10.88-10.88-5.12-10.88-10.88-10.88zM832.64 235.52c-26.88 0-49.28-21.76-49.28-49.28s21.76-49.28 49.28-49.28 49.28 21.76 49.28 49.28-22.4 49.28-49.28 49.28z m0-72.96c-12.8 0-23.68 10.88-23.68 23.68s10.88 23.68 23.68 23.68 23.68-10.88 23.68-23.68-10.88-23.68-23.68-23.68zM729.6 377.6h25.6v64h-25.6z" fill="#708DB7" p-id="3504"></path><path d="M743.04 389.12c-19.84 0-36.48-16-36.48-36.48s16-36.48 36.48-36.48 36.48 16 36.48 36.48-16.64 36.48-36.48 36.48z m0-47.36c-5.76 0-10.88 5.12-10.88 10.88s5.12 10.88 10.88 10.88 10.88-5.12 10.88-10.88-5.12-10.88-10.88-10.88zM332.8 428.8h-25.6V275.2H185.6v-25.6h147.2z" fill="#708DB7" p-id="3505"></path><path d="M320.64 269.44m-23.68 0a23.68 23.68 0 1 0 47.36 0 23.68 23.68 0 1 0-47.36 0Z" fill="#FFF27D" p-id="3506"></path><path d="M320.64 305.92c-19.84 0-36.48-16-36.48-36.48s16-36.48 36.48-36.48 36.48 16 36.48 36.48-16.64 36.48-36.48 36.48z m0-47.36c-5.76 0-10.88 5.12-10.88 10.88s5.12 10.88 10.88 10.88 10.88-5.12 10.88-10.88-5.12-10.88-10.88-10.88zM160.64 312.32c-26.88 0-49.28-21.76-49.28-49.28s21.76-49.28 49.28-49.28 49.28 21.76 49.28 49.28-22.4 49.28-49.28 49.28z m0-72.96c-12.8 0-23.68 10.88-23.68 23.68s10.88 23.68 23.68 23.68 23.68-10.88 23.68-23.68-10.88-23.68-23.68-23.68z" fill="#708DB7" p-id="3507"></path><path d="M147.2 307.2h25.6v64h-25.6z" fill="#708DB7" p-id="3508"></path><path d="M160.64 427.52c-19.84 0-36.48-16-36.48-36.48s16-36.48 36.48-36.48 36.48 16 36.48 36.48-16.64 36.48-36.48 36.48z m0-47.36c-5.76 0-10.88 5.12-10.88 10.88s5.12 10.88 10.88 10.88 10.88-5.12 10.88-10.88-5.12-10.88-10.88-10.88zM268.8 531.2h25.6v115.2h-25.6zM844.8 697.6h-147.2V582.4h25.6v89.6h121.6z" fill="#708DB7" p-id="3509"></path><path d="M711.04 691.84m-23.68 0a23.68 23.68 0 1 0 47.36 0 23.68 23.68 0 1 0-47.36 0Z" fill="#FFF27D" p-id="3510"></path><path d="M711.04 728.32c-19.84 0-36.48-16-36.48-36.48s16-36.48 36.48-36.48 36.48 16 36.48 36.48-16.64 36.48-36.48 36.48z m0-47.36c-5.76 0-10.88 5.12-10.88 10.88s5.12 10.88 10.88 10.88 10.88-5.12 10.88-10.88-5.12-10.88-10.88-10.88zM871.04 734.72c-26.88 0-49.28-21.76-49.28-49.28s21.76-49.28 49.28-49.28 49.28 21.76 49.28 49.28-22.4 49.28-49.28 49.28z m0-72.96c-12.8 0-23.68 10.88-23.68 23.68s10.88 23.68 23.68 23.68 23.68-10.88 23.68-23.68-10.88-23.68-23.68-23.68z" fill="#708DB7" p-id="3511"></path><path d="M857.6 729.6h25.6v64h-25.6z" fill="#708DB7" p-id="3512"></path><path d="M871.04 849.92c-19.84 0-36.48-16-36.48-36.48s16-36.48 36.48-36.48 36.48 16 36.48 36.48-16.64 36.48-36.48 36.48z m0-47.36c-5.76 0-10.88 5.12-10.88 10.88s5.12 10.88 10.88 10.88 10.88-5.12 10.88-10.88-5.12-10.88-10.88-10.88zM595.2 652.8h25.6v64h-25.6z" fill="#708DB7" p-id="3513"></path><path d="M608.64 773.12c-19.84 0-36.48-16-36.48-36.48s16-36.48 36.48-36.48 36.48 16 36.48 36.48-16.64 36.48-36.48 36.48z m0-47.36c-5.76 0-10.88 5.12-10.88 10.88s5.12 10.88 10.88 10.88 10.88-5.12 10.88-10.88-5.12-10.88-10.88-10.88zM467.2 806.4H332.8v-25.6h108.8v-121.6h25.6z" fill="#708DB7" p-id="3514"></path><path d="M455.04 794.24m-23.68 0a23.68 23.68 0 1 0 47.36 0 23.68 23.68 0 1 0-47.36 0Z" fill="#FFF27D" p-id="3515"></path><path d="M455.04 830.72c-19.84 0-36.48-16-36.48-36.48s16-36.48 36.48-36.48 36.48 16 36.48 36.48-16.64 36.48-36.48 36.48z m0-47.36c-5.76 0-10.88 5.12-10.88 10.88s5.12 10.88 10.88 10.88 10.88-5.12 10.88-10.88-5.12-10.88-10.88-10.88z" fill="#708DB7" p-id="3516"></path><path d="M314.24 787.84m-23.68 0a23.68 23.68 0 1 0 47.36 0 23.68 23.68 0 1 0-47.36 0Z" fill="#FFF27D" p-id="3517"></path><path d="M314.24 824.32c-19.84 0-36.48-16-36.48-36.48s16-36.48 36.48-36.48 36.48 16 36.48 36.48-16.64 36.48-36.48 36.48z m0-47.36c-5.76 0-10.88 5.12-10.88 10.88s5.12 10.88 10.88 10.88 10.88-5.12 10.88-10.88-5.12-10.88-10.88-10.88z" fill="#708DB7" p-id="3518"></path><path d="M300.8 812.8h25.6v64h-25.6z" fill="#708DB7" p-id="3519"></path><path d="M314.24 903.04m-23.68 0a23.68 23.68 0 1 0 47.36 0 23.68 23.68 0 1 0-47.36 0Z" fill="#FFF27D" p-id="3520"></path><path d="M314.24 939.52c-19.84 0-36.48-16-36.48-36.48s16-36.48 36.48-36.48 36.48 16 36.48 36.48-16.64 36.48-36.48 36.48z m0-47.36c-5.76 0-10.88 5.12-10.88 10.88s5.12 10.88 10.88 10.88 10.88-5.12 10.88-10.88-5.12-10.88-10.88-10.88z" fill="#708DB7" p-id="3521"></path><path d="M282.24 721.92c-26.88 0-49.28-21.76-49.28-49.28s21.76-49.28 49.28-49.28 49.28 21.76 49.28 49.28-22.4 49.28-49.28 49.28z m0-72.96c-12.8 0-23.68 10.88-23.68 23.68s10.88 23.68 23.68 23.68 23.68-10.88 23.68-23.68-10.88-23.68-23.68-23.68z" fill="#708DB7" p-id="3522"></path></svg>